<svg width="1440" height="977" viewBox="0 0 1440 977" fill="none" xmlns="http://www.w3.org/2000/svg">
<g clip-path="url(#clip0_4_1490)">
<rect width="1440" height="977" fill="#01AA1B"/>
<path d="M1059.19 864.242C1058.79 860.058 1058.39 855.665 1058.79 851.272C1059.59 843.531 1061.58 834.117 1065.76 827.422C1066.96 825.539 1067.36 824.912 1068.75 824.493C1068.55 827.631 1069.55 830.979 1069.75 834.326C1070.15 839.138 1070.15 843.95 1069.55 848.761C1068.95 853.364 1067.76 857.966 1065.36 861.941C1063.77 864.661 1061.18 865.707 1059.59 868.217C1059.39 866.962 1059.39 865.289 1059.19 864.242ZM1069.15 871.565C1069.55 870.519 1068.35 869.891 1067.76 870.519C1066.76 871.774 1065.56 872.82 1064.17 873.657C1062.97 872.611 1061.58 871.565 1060.38 870.519C1060.38 870.309 1060.18 870.309 1060.18 870.1C1066.96 870.519 1071.14 858.385 1072.34 852.945C1074.53 843.95 1075.13 832.234 1069.55 824.284C1069.95 824.075 1070.35 824.075 1070.94 824.075C1073.53 822.82 1074.93 823.657 1075.33 826.795C1075.73 828.05 1076.12 829.514 1076.12 830.77C1076.72 834.326 1076.92 837.883 1076.92 841.439C1076.92 850.226 1075.53 859.222 1072.74 867.381C1072.54 868.008 1073.13 868.217 1073.33 867.799C1078.32 855.665 1080.31 841.857 1078.12 828.887C1077.52 825.121 1076.12 820.937 1072.14 820.1C1068.15 819.263 1064.57 823.866 1062.57 826.795C1056 837.046 1053.81 852.527 1055.6 864.452C1056.2 868.427 1057 875.54 1061.58 876.795C1065.16 877.841 1067.95 874.703 1069.15 871.565Z" fill="white" fill-opacity="0.3"/>
<path d="M882.527 823.801C877.982 813.522 883.713 803.033 891.814 797.159C899.915 791.286 910.782 790.447 920.069 793.174C925.997 794.852 931.134 797.159 935.679 801.565C936.074 801.984 936.271 802.194 936.469 802.613C942.989 811.634 944.373 821.913 937.259 831.352C930.936 839.743 918.686 844.358 908.806 843.1C898.729 841.631 887.072 833.66 882.527 823.801ZM931.134 841.421C939.235 836.177 944.965 828.835 945.953 818.346C946.546 810.585 941.409 801.984 935.876 796.95C928.368 790.027 915.722 785.412 905.843 787.51C903.076 787.929 900.112 788.978 896.951 790.237C890.431 792.125 884.503 796.32 880.749 802.613C876.402 809.955 875.611 819.395 879.563 827.157C889.64 846.246 913.944 852.749 931.134 841.421Z" fill="white" fill-opacity="0.3"/>
<path d="M773.973 1002L768.767 1002C770.695 1000.16 772.045 998.126 772.623 995.883C772.623 995.271 772.816 994.66 773.009 994.048C773.202 993.028 773.202 991.601 773.202 990.174C772.623 984.669 770.888 979.775 768.382 974.881C763.369 965.298 754.5 956.938 744.088 955.103C738.497 954.288 733.098 954.084 727.893 956.531C723.458 958.366 719.217 961.22 715.746 964.89C722.494 969.988 728.086 976.716 732.327 983.853C735.026 988.746 738.497 995.271 741.003 1002L735.798 1002C733.677 996.902 730.978 991.805 728.664 987.727C721.916 975.493 710.348 963.667 696.466 962.036C681.427 960.405 672.558 972.435 664.267 983.649C660.604 988.543 656.941 993.844 655.206 999.961C655.013 1000.57 654.82 1001.39 654.82 1002L650 1002C650.771 996.087 653.856 990.582 657.134 985.688C665.617 972.027 676.993 956.327 693.959 956.734C700.707 956.938 707.07 959.181 712.661 962.851C718.253 952.656 731.17 947.967 741.389 949.19C747.752 950.006 753.343 952.045 758.163 955.511C769.924 948.171 786.891 961.628 790.168 973.454C792.096 980.387 793.639 986.3 788.626 991.805C785.927 994.66 780.143 999.349 775.708 998.534C775.322 999.757 774.744 1000.98 773.973 1002ZM776.865 993.436C777.636 985.688 774.744 977.328 771.274 970.803C768.574 965.502 764.911 960.812 760.669 957.346C769.538 955.715 781.299 964.89 784.577 972.639C786.119 976.513 788.24 983.445 785.927 987.319C784.577 989.562 779.95 993.64 776.865 993.436Z" fill="white" fill-opacity="0.3"/>
<path d="M728.63 1002C728.233 1001.59 728.035 1000.98 727.639 1000.37C725.26 995.692 722.286 991.418 719.312 987.145C714.356 979.413 706.624 973.715 700.082 967.407C699.884 967.203 700.082 967 700.28 967C714.752 975.139 725.458 987.145 732 1002L728.63 1002Z" fill="white" fill-opacity="0.3"/>
<path d="M767.664 993.333C764.761 986.4 762.052 979.874 757.794 973.757C753.536 968.047 748.891 963.561 744.053 958.463C743.859 958.259 744.246 957.852 744.44 958.055C755.278 968.047 766.116 977.02 769.986 992.721C770.18 993.945 768.245 994.556 767.664 993.333Z" fill="white" fill-opacity="0.3"/>
<path d="M1415.83 895.221C1400.97 886.748 1389.25 873.315 1384.95 855.956C1376.55 821.237 1391.4 775.773 1426.18 764.613C1428.72 763.786 1431.26 763.166 1434 762.753L1434 758C1431.85 758.413 1429.7 758.827 1427.75 759.24C1393.74 767.3 1375.37 809.458 1378.3 844.176C1379.87 863.189 1387.68 880.341 1402.15 892.121C1409.38 898.114 1417.19 902.66 1425.99 905.347C1428.72 906.173 1431.26 906.793 1434 907L1434 901.42C1427.55 900.387 1421.49 898.32 1415.83 895.221Z" fill="white" fill-opacity="0.3"/>
<path d="M1434 844.425C1432.69 844.425 1432.5 844.215 1433.44 843.584C1433.63 843.164 1433.81 843.164 1434 842.953L1434 838.748C1432.5 839.379 1431.19 840.43 1430.45 841.692C1428.01 845.266 1430.82 847.159 1434 848L1434 844.425ZM1434 809.729C1433.63 809.519 1433.44 809.308 1433.06 809.098C1431.76 808.257 1430.26 808.888 1432.13 808.047C1432.69 807.626 1433.25 807.626 1434 807.626L1434 803C1431.76 803 1429.88 803.421 1428.39 804.682C1424.27 808.257 1430.26 812.673 1434 814.986L1434 809.729Z" fill="white" fill-opacity="0.3"/>
<path d="M1126.89 1015.08C1128.26 1011.94 1129.83 1008.6 1131.21 1005.25C1132.78 1001.49 1135.13 996.467 1134.35 992.284C1134.15 991.029 1132.97 989.984 1131.79 990.611C1128.46 992.493 1125.52 996.048 1122.38 998.558C1120.02 1000.23 1117.67 1002.32 1115.12 1004.2C1116.88 1001.49 1118.65 998.558 1120.02 995.63C1122.97 989.774 1126.11 984.128 1128.46 978.063C1129.05 976.599 1127.87 975.135 1126.5 975.344C1122.18 975.763 1117.47 978.481 1113.75 980.154C1110.21 981.618 1106.68 983.291 1103.15 984.755C1103.94 984.128 1104.33 983.71 1104.92 983.082C1107.47 980.573 1110.02 977.854 1112.57 974.926C1115.12 971.998 1121.4 966.561 1120.02 961.96C1119.83 961.332 1119.24 960.914 1118.65 960.914C1114.14 959.659 1108.84 960.496 1104.13 960.287C1101.39 960.287 1097.07 960.287 1093.54 959.45C1096.48 958.823 1099.82 958.614 1102.37 958.405C1107.08 957.568 1111.78 956.731 1116.49 956.731C1117.87 956.941 1119.04 955.895 1118.85 954.222C1118.85 952.34 1117.87 951.712 1116.49 950.876C1113.35 948.784 1110.02 946.902 1106.68 945.02C1100.8 941.465 1091.58 938.328 1086.48 932.89C1090.6 932.472 1097.07 934.773 1099.62 935.4C1103.94 936.655 1110.02 937.91 1112.76 941.674C1114.33 943.974 1117.87 941.256 1116.1 938.955C1110.61 931.217 1105.31 923.061 1098.84 916.16C1095.89 913.232 1092.75 910.095 1089.42 907.585C1088.63 906.958 1087.85 906.331 1087.06 905.703C1084.91 903.403 1084.91 903.194 1087.06 904.867C1089.03 905.494 1090.99 906.121 1092.75 906.749C1101.19 909.886 1109.23 915.532 1116.1 921.388C1118.65 923.689 1121.2 926.198 1123.36 928.917C1124.93 931.636 1126.5 934.354 1127.87 937.282C1129.83 940.837 1131.21 943.138 1131.6 947.321C1131.8 948.994 1131.6 949.621 1132.38 951.085C1132.78 951.921 1133.76 952.131 1134.54 952.131C1139.45 951.503 1144.94 948.157 1149.45 946.066C1152.59 944.602 1156.12 943.138 1159.46 942.51C1163.77 942.092 1165.93 943.765 1168.48 947.111C1170.25 949.203 1173.78 952.34 1170.44 954.013C1167.7 955.268 1163.77 954.849 1161.03 955.268C1154.36 956.104 1147.88 957.777 1141.41 959.45C1137.68 960.287 1136.5 961.542 1136.5 965.515C1136.7 973.044 1139.45 980.154 1138.86 987.683C1138.27 994.166 1136.9 1000.86 1133.95 1006.71C1132.58 1009.64 1130.81 1012.57 1128.66 1015.08C1127.87 1015.92 1126.3 1017.59 1124.73 1019.05C1125.52 1017.59 1126.3 1016.33 1126.89 1015.08ZM1107.08 1027L1085.69 1027C1098.64 1024.7 1111.39 1020.31 1122.97 1014.45C1123.75 1012.99 1124.54 1011.52 1125.12 1010.27C1126.89 1006.71 1130.03 1001.07 1130.81 996.258C1127.87 998.558 1125.32 1001.9 1122.57 1004C1118.65 1007.13 1114.53 1010.69 1110.02 1012.99C1108.45 1013.82 1106.68 1011.73 1107.27 1010.06C1109.63 1004.41 1113.75 999.604 1116.69 994.166C1118.85 989.774 1121.4 985.173 1123.36 980.573C1121.99 981.2 1120.81 981.827 1119.63 982.246C1117.08 983.5 1114.33 984.755 1111.59 985.801C1106.68 988.101 1101.58 990.402 1096.29 991.447C1094.91 991.657 1093.34 989.774 1094.13 988.31C1095.89 984.546 1100.8 981.2 1103.74 978.272C1106.09 975.972 1108.45 973.671 1110.8 971.162C1111.39 970.325 1116.3 965.724 1115.9 964.888C1115.71 964.051 1101.58 964.888 1099.62 964.888C1095.5 964.469 1089.42 964.678 1086.08 961.542C1085.1 960.496 1084.91 958.614 1086.08 957.359C1090.01 954.222 1095.3 954.222 1100.01 953.804C1103.35 953.385 1106.88 952.758 1110.41 952.549C1108.84 951.712 1107.47 950.876 1106.88 950.457C1103.54 948.575 1100.21 946.693 1096.87 945.02C1091.18 941.883 1083.93 938.955 1080.39 933.099C1079.61 932.054 1079.61 930.381 1080.79 929.544C1085.5 925.571 1094.13 928.917 1099.23 930.172C1101.39 930.799 1103.74 931.426 1106.09 932.263C1104.33 929.544 1102.37 927.035 1100.21 924.316C1095.7 918.46 1090.4 914.068 1085.1 909.258C1081.18 908.84 1076.67 909.468 1073.14 909.677C1067.84 910.095 1062.93 911.141 1058.03 913.023C1048.02 916.996 1038.02 923.061 1029.58 929.962C1021.93 936.236 1015.46 943.347 1009.38 951.294C1003.49 958.823 999.173 967.606 995.053 976.181C993.092 980.363 991.326 984.755 990.149 989.147C988.579 995.212 990.149 999.813 993.484 1004.62C999.173 1013.2 1007.41 1017.8 1016.24 1021.77C1021.54 1024.28 1026.84 1025.95 1032.33 1027L1013.1 1027C1008 1024.91 1003.1 1021.98 998.781 1018.63C991.914 1013.2 984.852 1004.83 984.067 995.421C983.282 985.173 989.56 975.135 993.876 966.561C1004.27 946.275 1019.18 929.962 1038.02 918.251C1046.26 913.232 1055.09 908.213 1064.7 906.749C1069.8 905.912 1076.47 905.076 1082.36 906.121C1081.38 904.867 1080.79 903.403 1081.38 901.939C1082.55 898.802 1086.48 900.266 1088.63 900.893C1100.01 904.239 1111 910.722 1119.83 919.506C1121.79 921.388 1123.56 923.27 1125.12 925.571C1125.71 926.198 1126.5 927.035 1127.09 927.871C1128.66 929.963 1130.03 932.054 1131.6 934.354C1132.58 936.027 1133.56 937.491 1134.15 938.955C1134.93 940.21 1135.72 941.674 1136.11 943.347C1136.31 943.974 1136.11 945.438 1136.11 946.693C1138.86 946.066 1142 944.393 1144.55 943.347C1148.08 941.883 1151.61 940.419 1155.34 939.373C1160.63 938.119 1165.34 938.119 1169.27 942.301C1171.62 944.811 1177.7 951.503 1175.54 955.268C1174.37 957.15 1172.01 957.359 1170.25 957.568C1166.32 958.405 1162.4 958.823 1158.48 959.45C1153.96 960.287 1149.26 961.542 1144.74 963.005C1142.78 963.633 1141.41 963.633 1140.82 965.933C1140.62 968.025 1141.8 970.952 1142 973.044C1143.37 980.782 1143.57 988.101 1142.19 996.048C1141.02 1002.95 1138.27 1009.43 1134.15 1014.87C1131.6 1018.43 1126.5 1024.7 1121.99 1025.33C1121.2 1025.54 1119.83 1024.7 1119.83 1023.65C1119.83 1022.61 1120.02 1021.56 1120.42 1020.52C1116.1 1023.24 1111.78 1025.33 1107.08 1027Z" fill="white" fill-opacity="0.3"/>
<path d="M1066.41 938.407C1066.8 937.827 1067 936.86 1067 936.087C1066.8 935.12 1066.41 934.54 1065.63 933.96C1064.65 932.993 1063.28 932.8 1062.11 933.187C1061.13 933.187 1059.96 933.38 1059.17 933.96C1057.61 935.313 1057.61 937.827 1059.17 938.987C1059.96 939.567 1061.13 939.953 1062.11 939.953C1063.67 940.147 1065.24 939.76 1066.41 938.407Z" fill="white" fill-opacity="0.3"/>
<path d="M1067 957.223C1067 955.545 1066.41 954.076 1064.82 953.446C1063.23 952.607 1061.45 953.027 1060.06 954.076C1058.87 954.915 1057.68 956.804 1058.08 958.272C1058.47 959.741 1059.27 960.58 1060.46 960.79C1060.85 961 1061.05 961 1061.45 961C1061.65 961 1061.84 960.79 1062.04 960.79C1062.44 960.79 1063.03 961 1063.43 960.79C1065.22 960.58 1066.8 959.112 1067 957.223Z" fill="white" fill-opacity="0.3"/>
<path d="M1073.75 956.263C1074.7 954.158 1072.81 951.211 1070.54 951.632L1070.35 951.632C1069.4 950.789 1068.27 950.789 1067.32 951.632C1066.19 952.474 1066 954.158 1066 955.421C1066.38 957.526 1067.89 958.789 1069.59 959C1071.29 959 1072.99 958.158 1073.75 956.263Z" fill="white" fill-opacity="0.3"/>
<path d="M1085.48 980.142C1085.65 979.529 1086 978.916 1086 978.303C1086 977.69 1086 977.077 1085.83 976.464C1085.48 975.442 1084.43 974.421 1083.38 974.421C1083.03 974.421 1082.86 974.421 1082.68 974.421C1082.51 974.216 1082.16 974.012 1081.99 974.012C1079.89 973.808 1078.84 976.26 1079.02 978.303C1079.19 979.734 1079.89 981.164 1081.11 981.777C1081.99 982.186 1083.03 981.982 1083.73 981.573C1084.43 981.369 1085.13 980.755 1085.48 980.142Z" fill="white" fill-opacity="0.3"/>
<path d="M1064.47 975.32C1064.85 974.93 1065.23 974.54 1065.6 973.956C1065.98 972.982 1066.17 972.008 1065.79 971.034C1065.42 970.06 1064.28 969.087 1063.15 969.087C1062.77 968.892 1062.39 969.087 1062.01 969.087C1061.06 969.281 1060.69 969.866 1060.12 970.255C1060.12 970.45 1060.12 970.45 1060.12 970.45C1060.87 969.476 1060.31 970.06 1059.93 970.45C1059.74 970.45 1059.36 970.45 1059.17 970.45C1057.09 971.229 1056.33 973.956 1057.66 975.709C1058.98 977.267 1061.06 977.267 1062.77 976.488C1063.33 976.293 1063.9 975.904 1064.47 975.32Z" fill="white" fill-opacity="0.3"/>
<path d="M1051.08 952.238C1053 950.302 1053.95 947.076 1051.66 944.924C1049.55 942.988 1045.54 944.279 1044.77 947.076C1044.39 947.936 1044.39 948.581 1044.58 949.227C1044.01 949.872 1043.82 950.732 1044.2 951.808C1044.58 953.099 1045.54 953.744 1046.69 953.959C1048.22 954.174 1049.94 953.529 1051.08 952.238Z" fill="white" fill-opacity="0.3"/>
<path d="M1045.91 944.314C1045.55 941.704 1043.74 940.398 1041.57 941.268C1041.39 941.268 1041.21 941.486 1041.03 941.704C1040.13 942.139 1039.59 943.009 1039.23 943.879C1039.05 944.314 1039.05 944.749 1039.05 945.185C1039.05 945.185 1039.05 945.402 1039.05 945.62C1038.86 946.925 1039.23 948.23 1040.13 949.101C1041.21 950.189 1043.2 950.406 1044.28 949.101C1045.55 948.013 1046.27 946.055 1045.91 944.314Z" fill="white" fill-opacity="0.3"/>
<path d="M1034.27 941.822C1035.63 939.964 1035.05 937.074 1032.92 936.042C1032.53 935.836 1032.15 935.836 1031.76 935.836C1030.99 934.803 1029.82 934.803 1028.66 935.423C1028.28 935.629 1027.89 936.042 1027.5 936.455C1027.31 936.455 1027.12 936.661 1027.12 936.868C1026.92 936.868 1026.92 936.868 1027.12 936.868C1026.73 937.281 1026.54 937.487 1026.34 938.106C1025.38 940.377 1026.54 942.648 1028.66 943.68C1030.6 944.506 1032.92 943.68 1034.27 941.822Z" fill="white" fill-opacity="0.3"/>
<path d="M1035.95 964.92C1035.56 963.776 1034.39 962.441 1033.03 962.441C1032.83 962.441 1032.44 962.441 1032.05 962.441C1032.05 962.441 1032.05 962.441 1031.86 962.441C1031.86 962.441 1031.66 962.251 1031.47 962.251C1030.88 961.869 1029.91 961.869 1029.52 962.632C1029.32 962.823 1029.13 963.013 1028.93 963.395C1028.15 963.967 1027.76 965.302 1028.15 966.255C1028.74 967.4 1029.71 968.162 1030.88 968.544C1031.47 968.925 1032.25 969.116 1032.83 968.925C1033.61 968.925 1034 968.544 1034.78 968.162C1035.76 967.59 1036.15 966.065 1035.95 964.92Z" fill="white" fill-opacity="0.3"/>
<path d="M1016.38 962.282C1017.3 961.208 1017.11 959.275 1016.38 958.201C1016.01 957.772 1015.65 957.557 1015.28 957.342C1015.1 956.913 1015.1 956.698 1014.91 956.483C1014.18 955.839 1013.26 955.839 1012.53 956.483C1011.98 956.698 1011.61 957.342 1011.24 957.772C1011.43 957.772 1011.24 957.987 1011.06 957.987C1010.88 958.201 1010.69 958.631 1010.51 958.846C1009.59 960.564 1009.96 962.067 1011.24 962.926L1011.24 963.141C1011.43 963.356 1011.79 963.356 1011.98 963.57C1012.34 963.785 1012.71 963.785 1013.08 964C1013.63 964 1013.99 964 1014.54 963.785C1015.28 963.57 1015.83 963.141 1016.38 962.282Z" fill="white" fill-opacity="0.3"/>
<path d="M1090.04 958.162C1089.47 957.387 1088.71 957 1087.76 957C1086.61 957 1085.85 957.581 1085.09 958.356C1084.71 958.744 1084.71 958.937 1084.52 959.131C1083.75 960.293 1083.75 962.424 1085.09 963.199C1086.61 964.168 1088.33 964.362 1089.66 963.199C1091.38 961.843 1091.38 959.518 1090.04 958.162Z" fill="white" fill-opacity="0.3"/>
<path d="M1080.54 950.961C1079.82 949.504 1078.01 948.464 1076.57 949.296C1076.21 949.504 1075.85 949.712 1075.48 949.92C1075.67 949.92 1075.67 949.712 1075.85 949.712C1075.67 949.92 1075.3 949.92 1075.12 950.128C1075.12 950.128 1075.3 950.128 1075.3 949.92C1074.94 950.128 1074.58 950.336 1074.22 950.544C1073.14 951.377 1072.77 952.833 1073.14 954.498C1073.86 957.411 1078.01 957.619 1079.82 955.954C1080.91 954.498 1081.45 952.625 1080.54 950.961Z" fill="white" fill-opacity="0.3"/>
<path d="M1306.5 985.771C1313.92 986.6 1320.76 988.879 1326.81 993.437C1329.35 995.716 1331.5 998.202 1333.45 1001.1C1334.43 1002.76 1338.92 1008.56 1338.72 1010.63C1338.72 1011.67 1339.11 1012.29 1339.7 1012.7C1339.5 1013.53 1339.31 1014.36 1339.11 1014.98C1337.94 1019.13 1337.75 1023.06 1337.55 1027L1341.07 1027C1341.46 1023.48 1342.04 1019.96 1343.21 1016.64C1346.14 1006.49 1350.64 995.716 1357.27 987.636C1364.3 978.727 1372.7 971.269 1381.49 964.639C1386.76 960.702 1392.42 957.595 1398.09 954.28C1400.43 952.83 1402.77 950.965 1405.12 949.515C1404.53 959.252 1403.75 968.99 1402.58 978.727C1401.02 990.744 1399.06 1001.72 1392.23 1011.88C1388.13 1017.88 1382.27 1022.86 1376.02 1027L1382.86 1027C1387.54 1023.69 1391.64 1019.75 1394.96 1015.19C1402.19 1005.45 1404.92 994.473 1406.68 982.456C1408.63 970.233 1409.8 957.595 1410 945.164C1410 943.714 1408.05 942.678 1406.88 943.092C1402.38 945.371 1398.28 949.1 1393.79 951.586C1388.52 954.901 1383.05 957.802 1378.17 961.738C1369.19 968.368 1360.79 976.034 1353.76 984.735C1348.88 990.743 1344.97 998.202 1342.04 1005.87C1341.46 1004.62 1340.87 1003.8 1340.29 1002.76C1338.14 998.616 1335.79 994.68 1332.47 991.572C1326.81 985.978 1319.78 982.871 1312.36 981.42C1294.79 977.484 1277.41 984.114 1262.76 994.473C1249.87 1003.38 1237.76 1014.36 1228 1027L1234.25 1027C1243.23 1016.02 1254.36 1006.49 1265.69 998.616C1277.8 990.122 1291.86 984.114 1306.5 985.771ZM1360.59 1027L1354.93 1027C1360.79 1021.82 1366.45 1016.43 1371.53 1010.63C1381.29 999.445 1386.57 984.114 1394.38 971.476C1394.77 971.061 1395.16 971.476 1394.96 971.683C1388.32 985.771 1383.44 1001.52 1373.48 1013.33C1369.38 1018.3 1365.09 1022.65 1360.59 1027Z" fill="white" fill-opacity="0.3"/>
<path d="M325.664 998.328C322.372 982.214 316.369 966.304 303.588 956.921C310.366 953.453 318.887 955.901 324.89 959.776C331.474 963.856 336.896 970.995 340.575 978.134C344.254 985.478 345.416 994.045 347.352 1002L352 1002C350.257 994.045 349.483 985.478 345.997 978.134C343.092 971.811 338.638 966.1 333.797 961.408C325.664 953.249 309.785 945.702 299.522 953.861C299.328 953.861 299.328 954.065 299.135 954.065C298.166 953.453 297.198 953.045 296.23 952.637C287.903 948.761 277.64 947.334 269.313 951.617C262.342 955.085 254.596 962.428 252.466 970.383C252.466 970.587 252.466 970.587 252.466 970.791C250.142 970.995 248.012 971.403 245.882 972.015C235.812 975.279 227.873 985.682 225.162 995.881C224.581 997.92 224.194 999.96 224 1002L229.228 1002C229.616 1000.37 229.809 998.736 230.39 997.104C232.908 987.925 240.073 979.154 249.174 976.707C260.212 973.851 270.281 975.483 281.126 977.522C282.094 977.726 282.675 976.095 281.706 975.687C274.154 972.831 265.828 970.587 257.501 970.383C260.599 962.836 270.281 955.289 277.64 954.473C285.386 953.453 293.519 956.105 300.297 959.98C313.658 967.935 320.823 983.642 325.277 998.532C325.277 998.736 325.664 998.532 325.664 998.328Z" fill="white" fill-opacity="0.3"/>
<path d="M6 872.767C7.56128 871.322 8.9274 869.877 10.2935 868.432C10.4887 868.226 10.4887 868.019 10.6838 867.606C12.6354 868.638 14.587 869.877 16.5386 871.116C23.3692 874.832 29.6144 876.69 37.2256 877.103C43.4707 877.516 49.7158 878.754 55.5706 881.438C51.6674 884.122 47.7642 888.457 46.3981 889.902C43.0804 893.825 39.9578 898.367 38.7869 903.322C37.2256 910.134 38.3966 916.328 38.7869 923.14C38.7869 923.553 39.3724 923.553 39.3724 923.14C39.9578 917.36 40.153 911.579 41.9094 906.212C43.6659 901.463 46.3981 897.128 49.911 893.619C52.0578 891.554 54.2045 889.49 56.3513 887.425C57.5222 886.393 59.0835 885.361 60.4496 884.328C66.6948 888.251 71.9641 891.967 79.3802 892.793C82.5027 893.206 85.6253 893.412 88.5527 893.412C81.3318 903.322 76.0624 913.231 75.477 926.237C75.477 926.444 75.8673 926.65 75.8673 926.237C77.2334 919.631 80.1608 912.199 83.8688 906.625C86.4059 902.909 91.2849 898.986 92.651 894.651C92.651 894.238 92.651 894.031 92.651 893.619C96.5542 893.825 100.262 894.238 104.165 895.064C110.996 896.715 117.241 899.193 122.511 903.734C116.461 906.212 109.63 917.773 107.874 921.489C103.19 930.779 105.336 941.514 107.874 951.217C107.874 951.217 108.069 951.217 108.069 951.011C106.703 942.134 106.507 930.779 111.972 923.14C114.704 919.218 118.022 914.883 121.535 911.579C122.901 910.341 124.852 909.308 126.023 907.863C130.707 913.85 133.635 921.076 134.806 928.715C136.172 936.972 136.562 944.611 132.269 952.043C129.341 956.998 125.828 961.746 121.34 965.256C119.973 965.669 118.607 966.288 117.241 966.701C112.362 968.352 107.483 969.178 102.409 968.972C98.1155 968.765 94.7978 967.32 91.4801 965.462C90.5043 963.604 89.3333 961.54 88.5527 959.682C86.9914 955.14 86.0156 950.391 86.6011 945.437C87.772 936.353 92.651 926.031 98.701 919.424C99.6768 918.392 98.1155 916.741 96.9446 917.566C89.5285 923.14 84.064 934.495 82.6979 943.785C81.9172 948.946 82.6979 953.695 84.2591 958.443C84.6495 959.475 85.0398 960.507 85.6253 961.54C80.3559 957.411 75.2818 952.249 69.0367 950.391C64.548 948.946 59.8641 948.946 55.1803 948.327C54.3997 946.056 53.4239 943.992 53.0335 941.514C52.4481 937.592 52.4481 932.843 52.8384 928.921C53.619 919.837 59.669 910.547 64.548 903.322C65.1335 902.289 63.9625 900.431 62.9867 901.463C56.7416 907.863 50.1062 917.153 48.74 926.237C47.9594 930.985 48.1546 936.559 49.1303 941.308C49.7158 943.992 51.2771 946.056 52.4481 948.121C49.1303 947.501 45.8126 946.469 42.8852 944.404C36.8353 940.069 32.9321 933.463 27.8579 928.302C24.5402 924.792 20.8322 922.315 16.7338 920.25C16.929 918.599 17.3193 916.947 17.5144 915.502C17.7096 913.231 17.5144 910.754 17.9048 908.483C19.0757 902.083 20.4418 895.477 23.7596 889.902C23.9547 889.49 23.3692 889.077 23.1741 889.49C15.758 897.128 12.8306 907.863 13.8064 918.599C13.0258 918.186 12.2451 917.773 11.4645 917.36C9.70803 916.534 7.75643 915.502 5.99999 914.47L5.99999 921.282C9.51287 923.14 13.2209 924.586 16.5386 926.65C24.5402 931.398 29.4192 939.45 36.2498 945.643C42.8852 951.63 49.911 953.075 58.498 953.901C63.9625 954.314 69.0367 955.14 73.7205 958.649C77.4285 961.333 80.9414 964.223 84.6495 966.907C91.6752 971.655 98.3107 974.339 106.898 973.72C114.314 973.101 123.681 969.797 130.122 964.017C133.049 968.559 137.343 971.449 141.441 974.752C146.125 978.675 150.614 982.391 155.688 985.694C159.396 988.378 165.251 993.539 169.934 993.952C173.252 994.158 176.18 991.268 178.131 988.378C183.986 993.539 189.255 999.113 194.525 1004.48C199.208 1009.02 205.649 1011.09 210.918 1006.13C216.578 1000.76 212.87 996.223 208.381 991.887C201.941 985.281 194.329 979.913 186.328 975.578C181.254 972.688 176.18 969.591 171.105 966.701C177.155 969.178 183.4 971.449 189.646 974.133C196.086 977.023 205.063 983.629 212.479 982.184C216.968 981.359 224.384 976.197 224.97 970.83C225.555 964.843 217.553 960.92 213.65 958.856C205.649 954.52 197.062 953.075 188.475 951.424C187.108 951.217 185.742 950.804 184.376 950.598C185.157 948.74 185.742 946.882 183.791 944.817C182.62 943.785 181.059 943.372 179.692 942.753C176.57 941.721 173.838 940.276 170.91 938.83C165.446 936.353 159.591 935.321 153.931 934.082C149.443 933.05 145.149 931.811 140.66 931.605C140.465 929.953 140.075 928.095 139.685 926.237C138.123 917.36 134.025 908.689 128.17 902.083C122.12 895.27 114.119 892.38 105.727 890.315C95.5784 887.838 84.064 890.522 74.306 886.599C69.6222 884.741 65.9141 881.025 61.6206 878.341C58.3029 876.277 54.79 874.832 51.082 873.593C41.7143 870.703 31.7611 872.561 22.5886 868.226C18.2951 866.161 14.1967 863.064 9.51288 861.619C8.34192 861.206 7.17096 861 6 861L6 872.767ZM133.635 960.714L133.439 960.507C134.415 959.269 135.196 958.03 135.781 956.585C138.123 958.03 140.856 959.062 143.393 960.507C148.076 962.985 152.175 966.288 156.273 969.385C163.299 974.752 169.544 980.739 175.984 986.52C176.18 986.726 176.375 986.933 176.57 987.139C175.204 988.378 173.447 989.616 172.276 989.823C168.568 990.442 164.665 987.139 161.738 985.281C158.225 983.01 154.712 980.533 151.394 978.055C144.954 972.894 139.294 966.701 133.635 960.714ZM185.157 988.997C179.692 984.042 173.838 979.5 168.178 974.546C159.201 966.701 148.662 956.998 136.757 954.107C136.952 953.901 137.148 953.695 137.343 953.488C137.538 952.869 137.928 952.249 138.123 951.63C142.807 955.346 149.247 958.03 154.126 960.507C161.152 964.43 167.983 968.352 175.009 972.275C182.034 976.404 189.646 980.326 196.281 985.487C199.208 987.758 202.331 990.442 205.063 993.126C207.405 995.397 209.942 997.048 209.357 1000.35C208.966 1004.69 204.673 1005.31 201.55 1004.27C197.647 1002.83 195.5 999.319 192.768 996.429C190.231 993.745 187.694 991.474 185.157 988.997ZM177.35 964.43C170.715 961.746 164.08 958.856 157.444 955.966C154.322 954.727 151.004 953.075 147.881 951.63C147.491 951.424 143.783 949.772 141.636 948.946C141.051 948.74 140.27 948.327 139.685 947.914C140.075 946.675 140.27 945.437 140.66 944.198C146.32 945.85 151.98 947.914 157.834 949.359C165.055 951.217 172.667 952.249 180.083 953.695C187.499 955.14 195.11 955.966 202.331 958.03C206.624 959.269 222.042 964.43 220.676 970.623C219.895 974.752 212.674 978.881 209.162 978.262C205.649 977.642 201.745 974.959 198.623 973.514C191.597 970.21 184.376 967.32 177.35 964.43ZM182.229 950.185C174.813 948.946 167.397 947.501 159.981 945.437C155.688 944.404 151.199 943.372 147.101 941.927C144.759 941.101 143.002 940.276 141.051 940.688C141.051 939.45 141.051 938.005 141.051 936.766C143.978 936.766 146.906 937.385 149.833 937.798C153.931 938.624 158.03 939.037 162.128 939.863C166.617 940.895 170.52 942.753 174.618 944.611C176.18 945.23 178.717 945.437 180.083 946.469C181.644 947.501 182.034 948.74 182.229 950.185Z" fill="white" fill-opacity="0.3"/>
<path d="M888.698 916.205C896.138 922.649 903.577 928.885 910.625 935.953C924.134 948.841 939.209 962.768 946.453 980.853C950.368 990.623 950.173 1000.6 946.061 1010.37C942.733 1018.06 936.664 1023.47 929.616 1027L938.426 1027C940.579 1025.54 942.537 1023.67 944.299 1021.6C957.025 1006.42 954.48 985.426 945.082 969.42C939.992 960.481 933.336 952.998 926.288 945.723C918.456 937.408 910.429 929.301 901.815 921.61C886.349 907.89 870.49 889.805 850.913 882.738C838.187 878.165 826.049 885.232 816.064 894.171C814.498 892.092 812.344 890.429 811.169 889.182C807.058 884.817 802.947 880.659 798.64 876.71C795.116 873.384 792.57 870.266 787.676 870.058C783.956 869.642 780.041 871.513 777.104 874.215C772.014 879.204 769.86 890.221 774.754 895.834C781.607 903.525 789.438 908.722 797.465 914.334C793.158 919.739 788.851 925.559 785.327 931.795C781.411 938.447 780.432 946.346 783.956 953.622C787.872 961.729 795.899 968.796 802.164 974.409C810.386 981.892 818.217 989.999 826.832 996.859C835.054 1003.72 844.06 1009.95 852.87 1015.77C857.373 1018.89 862.268 1021.6 867.162 1024.09C868.924 1025.13 870.686 1026.17 872.448 1027L883.999 1027C880.084 1025.54 876.364 1023.88 872.644 1021.8C856.786 1013.28 841.515 1001.85 827.615 990.415C820.371 984.594 813.519 978.15 806.666 971.914C805.492 970.875 804.317 969.628 802.947 968.588C806.862 963.599 810.386 957.987 813.91 952.582C819.001 945.099 824.287 937.823 829.768 930.34C834.859 923.688 840.732 917.452 846.41 911.632C849.738 908.306 852.87 904.98 856.394 901.862C858.94 899.575 861.68 897.912 864.421 895.834C865.204 896.457 866.183 897.081 867.162 897.912C874.602 903.525 881.65 909.969 888.698 916.205ZM860.506 893.131C846.801 901.862 834.859 915.581 825.265 928.885C819.196 937.408 813.323 945.93 807.645 955.077C806.079 957.779 802.164 962.352 800.793 966.51C798.835 964.431 796.878 962.352 794.92 960.273C791.2 956.116 787.48 952.167 786.893 946.346C785.914 936.576 793.549 928.261 799.031 921.194C805.1 913.295 811.169 905.396 818.609 898.744C824.874 893.131 834.467 885.648 843.277 886.272C849.151 886.687 855.22 889.598 860.506 893.131ZM812.148 897.704C809.799 900.199 807.45 902.693 805.296 905.188C803.338 907.059 801.576 909.345 799.814 911.424C795.507 907.89 790.417 905.188 786.501 901.446C783.76 898.952 781.215 896.249 778.866 893.547C776.516 890.845 776.321 887.103 777.3 883.569C778.474 878.58 783.76 874.423 788.459 875.462C791.983 876.086 794.724 880.035 797.269 882.322C802.359 887.103 807.841 892.092 812.148 897.704Z" fill="white" fill-opacity="0.3"/>
<path d="M901.374 1001.71C903.324 1003.37 905.273 1005.23 907.223 1007.1C908.587 1008.34 911.511 1010 912.486 1011.65C912.486 1014.97 911.901 1017.25 910.537 1018.49C903.909 1020.15 894.746 1015.38 889.288 1012.69C879.93 1008.34 870.768 1002.75 862.19 996.533C853.808 990.732 845.815 984.103 838.017 977.267C834.313 973.746 830.414 970.017 827.49 965.252C826.125 962.767 825.346 959.659 826.71 956.966C828.855 952.823 832.364 953.237 835.873 954.688C845.425 958.416 854.003 966.288 862.385 972.296C871.158 978.925 879.735 985.761 888.703 992.182C892.992 995.29 897.28 998.397 901.374 1001.71ZM882.854 983.482C873.107 975.817 863.36 968.36 853.418 960.902C847.179 956.345 837.432 947.23 829.05 949.302C822.811 950.959 820.472 959.452 823.006 965.46C826.905 974.574 836.847 981.203 844.06 987.004C852.833 993.84 861.605 1000.47 870.963 1006.27C877.201 1010.2 883.634 1013.93 890.457 1017.04C896.89 1020.56 904.103 1023.26 911.121 1021.39C913.071 1020.77 915.02 1019.32 915.995 1017.46C916.19 1017.04 916.58 1016.63 916.775 1016.21C917.165 1015.8 916.97 1015.38 916.775 1015.18C916.775 1014.56 916.775 1014.14 916.775 1013.52C916.58 1010 912.876 1007.93 910.537 1005.65C901.959 997.361 892.407 990.732 882.854 983.482Z" fill="white" fill-opacity="0.3"/>
<path d="M923.374 971.712C925.518 973.369 927.273 975.233 929.222 977.098C930.587 978.34 933.511 979.998 934.486 981.655C934.681 984.969 933.901 987.248 932.536 988.491C925.908 990.355 916.745 985.384 911.287 982.898C901.929 978.34 892.766 972.747 884.188 966.74C876 960.732 867.812 954.311 860.209 947.267C856.31 943.746 852.411 940.017 849.681 935.459C848.122 932.974 847.342 929.659 848.902 926.966C850.851 922.823 854.36 923.445 858.064 924.687C867.422 928.416 876.195 936.288 884.383 942.296C893.156 948.925 901.734 955.968 910.702 962.182C914.991 965.29 919.28 968.397 923.374 971.712ZM905.048 953.482C895.105 946.024 885.553 938.36 875.415 931.109C869.177 926.345 859.429 917.23 851.241 919.301C844.808 921.166 842.468 929.659 845.003 935.459C848.902 944.574 858.844 951.41 866.252 957.004C874.83 963.84 883.603 970.469 892.961 976.269C899.199 980.205 905.633 984.141 912.456 987.041C919.085 990.563 926.103 993.256 933.121 991.391C935.071 990.77 937.02 989.527 937.995 987.455C938.385 987.041 938.58 986.834 938.775 986.212C939.165 986.005 938.97 985.384 938.775 985.177C938.97 984.762 938.97 984.141 938.775 983.727C938.58 979.998 934.876 977.926 932.731 975.855C923.958 967.361 914.406 960.732 905.048 953.482Z" fill="white" fill-opacity="0.3"/>
<path d="M465.553 1027C464.961 1025.13 464.764 1023.05 464.173 1021.39C466.341 1018.49 468.313 1015.58 469.298 1012.46C469.693 1010.59 467.524 1009.76 466.539 1011.22C464.567 1014.33 462.202 1016.82 460.23 1019.94C460.23 1020.15 459.836 1020.77 459.245 1021.39C459.245 1021.19 459.245 1020.98 459.245 1020.98C458.85 1013.71 461.413 1006.23 462.793 998.965C465.159 995.85 467.524 992.528 469.89 989.413C472.453 993.358 478.761 984.014 479.352 981.522C479.549 980.691 478.564 979.653 477.775 980.276C475.607 981.729 474.424 984.014 472.65 985.883C472.453 986.298 472.255 986.506 471.861 986.713C472.058 986.506 472.255 986.298 472.453 986.09C472.453 984.637 472.453 983.391 472.65 982.145C473.044 980.276 473.241 978.407 473.438 976.33C473.635 975.084 473.832 973.838 473.832 972.592C473.832 971.554 473.635 970.515 473.635 969.477C473.635 968.854 472.847 968.439 472.453 969.269C470.678 971.761 470.481 975.499 469.89 978.614C469.496 981.314 468.707 984.014 469.101 986.713C466.933 989.413 464.567 992.112 462.399 995.02C462.399 995.02 462.202 995.02 462.004 995.227C461.413 995.85 461.019 996.681 460.625 997.512C459.442 998.965 457.668 1001.66 456.879 1000.42C456.485 999.588 457.865 996.266 458.062 995.643C460.625 986.713 464.567 978.407 468.904 970.308C472.847 963.04 476.395 954.941 479.549 947.257C481.126 943.519 483.886 937.705 484.083 932.928C484.478 932.721 484.872 932.513 485.266 932.305C483.492 938.535 483.492 945.596 483.098 951.826C482.703 958.886 481.324 966.985 482.309 974.253C481.126 979.653 480.141 985.26 478.761 990.866C477.972 993.981 477.184 997.304 476.198 1000.42C475.804 1001.87 475.41 1003.95 474.621 1005.2C474.03 1006.23 474.03 1006.86 473.438 1006.03C473.241 1004.36 473.241 1002.91 473.044 1001.25C473.044 999.796 473.044 998.342 472.847 996.889C472.65 995.85 472.058 994.189 472.453 993.358C472.453 992.943 472.058 992.528 471.664 992.735C469.101 993.566 469.693 998.55 469.496 1000.83C469.298 1003.33 468.707 1009.35 471.861 1009.97C472.058 1010.18 472.255 1010.39 472.453 1010.59C472.255 1011.43 472.058 1012.46 471.861 1013.5C471.467 1015.99 470.481 1018.07 469.693 1020.35C468.904 1022.64 468.116 1024.72 466.933 1026.79C466.933 1026.79 466.933 1027 466.736 1027L471.073 1027C471.467 1025.96 472.058 1024.92 472.453 1023.88C473.241 1021.6 474.227 1019.11 475.015 1016.62C475.607 1014.54 475.41 1012.26 476.395 1010.39C476.395 1010.18 476.395 1010.18 476.395 1010.18C477.972 1008.52 478.761 1004.99 479.352 1003.12C481.915 995.85 483.886 987.751 484.281 979.86C484.478 980.068 484.872 980.068 485.069 980.068C489.209 978.407 492.166 972.592 494.137 968.646C497.291 962.209 499.657 955.564 502.22 949.126C507.345 936.666 509.316 923.376 511.288 910.085C512.273 909.047 513.259 907.386 514.048 906.14C521.144 893.472 526.27 879.974 530.213 865.645C532.184 859 533.564 852.147 535.338 845.502C536.915 839.895 539.675 834.703 541.449 829.304C546.772 823.074 549.926 816.014 553.671 808.538C557.614 800.854 562.345 793.586 564.908 785.28C566.682 779.88 566.879 772.404 560.965 769.705C555.051 767.005 552.094 772.612 549.729 777.181C544.603 787.149 538.689 796.493 533.17 806.046C530.804 809.161 528.438 812.483 526.27 815.806C521.933 822.867 517.793 830.135 514.048 837.818C512.273 841.349 510.696 844.879 509.316 848.617C508.331 851.109 506.359 853.809 506.359 856.508C506.359 857.754 507.148 858.377 507.937 858.792C508.331 859 508.725 859 509.119 859C508.528 861.907 508.134 864.815 507.739 867.722C505.571 872.291 503.008 876.859 500.84 881.428C497.291 888.488 494.137 895.549 490.195 902.402C486.646 908.424 483.689 914.654 481.324 921.091C479.944 924.622 475.804 930.644 478.958 933.759C479.155 934.174 479.549 934.382 479.944 934.382C479.155 936.043 478.564 937.705 477.775 938.951C475.607 943.934 473.044 948.711 470.678 953.487C466.144 963.663 460.625 973.423 456.879 984.014C455.893 987.128 449.585 1003.33 455.499 1004.78C456.485 1005.2 457.47 1004.78 458.456 1003.95C457.865 1006.86 457.47 1009.76 456.879 1012.26C456.09 1015.79 454.711 1022.02 456.288 1025.55C456.682 1026.38 457.076 1026.79 457.668 1027L459.047 1027C460.033 1026.79 460.822 1025.96 461.413 1025.13C461.61 1024.72 461.807 1024.51 461.807 1024.3C461.807 1025.34 461.807 1026.17 462.004 1027L465.553 1027ZM486.055 976.122C485.858 972.177 486.646 967.816 486.843 963.87C487.238 959.925 487.238 955.979 487.435 951.826C487.829 944.765 487.632 937.289 488.223 930.229C491.18 927.737 494.137 924.829 496.897 922.545C500.643 919.015 504.585 915.692 508.331 912.162C508.134 913.408 507.936 914.862 507.739 916.108C507.345 919.223 506.162 921.922 505.374 924.829C503.994 931.059 502.22 937.082 500.445 943.104C498.671 949.126 496.503 955.356 494.137 961.378C492.757 964.909 489.997 973.215 486.055 976.122ZM510.893 906.14C510.696 906.14 510.696 906.14 510.696 906.14C510.696 905.932 510.696 905.724 510.696 905.517C510.893 899.91 511.485 894.303 511.682 888.904C511.879 878.313 511.682 867.93 512.273 857.546C515.23 855.262 518.385 851.317 519.962 849.863C524.89 845.71 529.818 841.141 534.549 836.365C534.155 837.403 533.761 838.234 533.367 839.272C531.592 844.879 530.607 850.694 529.03 856.508C527.65 861.907 526.27 867.514 524.496 872.914C522.524 878.52 521.342 884.543 518.976 890.15C517.793 893.057 516.61 895.964 515.033 898.664C514.048 900.533 512.273 902.194 511.485 904.063C511.288 904.686 510.893 905.724 510.893 906.14ZM523.51 843.841C522.721 844.464 516.413 850.486 512.471 853.393C512.471 853.186 512.471 853.186 512.471 853.186C512.471 852.978 512.471 852.978 512.471 852.77C512.471 852.77 512.471 852.77 512.471 852.563C513.259 850.901 513.851 849.032 514.639 847.163C516.019 843.425 517.793 839.895 519.567 836.365C522.919 829.304 526.664 822.451 530.607 815.598C531.395 814.352 532.184 813.106 532.972 811.861C534.155 809.992 535.535 808.123 536.718 806.046C538.886 803.139 541.055 800.231 543.026 796.909C547.166 790.263 550.517 782.995 553.869 775.935C554.066 775.727 554.263 775.727 554.263 775.519C554.854 774.066 556.037 774.066 558.008 775.727C560.965 775.104 562.148 776.142 561.557 778.842C561.557 780.503 560.965 782.372 560.374 783.826C559.191 787.149 557.614 790.471 556.234 793.586C553.277 799.608 550.123 805.423 547.757 811.653C545.786 816.429 543.815 820.79 541.055 824.943C540.858 824.943 540.463 825.151 540.463 825.359C540.069 825.982 539.675 826.605 539.478 827.228C538.886 827.851 538.295 828.474 537.704 829.097C533.17 834.288 528.438 839.272 523.51 843.841ZM507.148 877.275C506.951 883.712 506.951 890.357 506.359 896.795C506.162 899.702 504.388 906.763 506.557 909.67C503.205 912.577 500.445 915.692 497.094 918.6C494.729 920.676 492.166 922.753 489.603 924.622C488.026 925.868 485.66 928.36 483.295 929.398C484.083 927.529 485.463 925.245 485.66 924.414C486.843 921.299 487.829 918.184 489.209 915.069C491.772 908.839 495.517 903.232 498.277 897.003C501.234 890.773 504.782 884.127 507.148 877.275Z" fill="white" fill-opacity="0.3"/>
<path d="M525.599 1027C525.599 1023.89 525.798 1020.56 525.798 1017.45C527.588 1013.92 529.378 1010.18 530.969 1006.65C534.35 1009.97 538.726 999.59 538.925 996.891C538.925 996.06 537.731 995.23 537.135 995.853C535.345 997.929 534.549 1000.42 533.157 1002.5C532.958 1002.91 532.759 1003.33 532.361 1003.74C532.56 1003.33 532.759 1003.12 532.958 1002.7C532.759 1001.46 532.56 1000.21 532.361 998.967C532.361 996.891 532.162 995.022 531.963 993.153C531.963 991.907 531.963 990.661 531.764 989.415C531.566 988.377 531.168 987.339 530.969 986.508C530.77 985.885 529.974 985.47 529.577 986.301C528.383 989.208 528.98 992.945 528.98 996.06C528.98 998.76 528.781 1001.67 529.776 1004.37C527.986 1007.27 526.394 1010.6 524.803 1013.71C524.604 1013.71 524.405 1013.71 524.405 1013.92C524.008 1014.75 523.61 1015.58 523.411 1016.62C522.615 1018.28 521.223 1021.39 520.229 1020.15C519.831 1019.52 520.428 1015.99 520.626 1015.16C521.422 1006.03 523.61 996.891 526.394 988.169C528.98 980.279 530.77 971.558 532.56 963.252C533.356 959.306 534.947 953.077 534.35 948.301C534.549 948.093 534.947 947.886 535.146 947.47C534.748 953.907 536.14 960.76 536.936 966.989C537.731 974.049 537.93 982.148 540.317 989.208C540.317 994.814 540.317 1000.42 540.118 1006.23C539.919 1009.56 539.72 1012.88 539.322 1016.2C539.322 1017.66 539.124 1019.73 538.726 1020.98C538.328 1022.22 538.527 1023.05 537.731 1022.02C537.135 1020.56 536.936 1019.11 536.538 1017.66C536.14 1016.2 535.742 1014.75 535.345 1013.3C535.146 1012.46 534.151 1011.01 534.151 1009.97C534.35 1009.56 533.753 1009.14 533.356 1009.35C531.168 1011.01 532.56 1015.79 532.759 1017.86C533.157 1020.36 533.753 1026.38 536.936 1026.38C537.135 1026.38 537.334 1026.58 537.731 1026.79L537.731 1027L541.311 1027C541.311 1026.58 541.311 1026.17 541.311 1025.75C541.311 1025.75 541.311 1025.75 541.311 1025.55C542.704 1023.68 542.903 1020.15 543.101 1018.07C544.295 1010.39 544.693 1002.08 543.3 994.399C543.698 994.399 543.897 994.399 544.295 994.191C548.074 991.7 549.864 985.47 551.057 981.109C552.847 974.257 553.842 967.197 555.234 960.344C558.019 946.847 557.422 933.558 556.626 920.268C557.621 918.815 558.217 916.946 558.615 915.7C563.389 901.787 565.775 887.46 566.969 872.717C567.565 865.656 567.565 858.804 568.162 851.744C568.56 845.93 570.151 840.323 570.947 834.717C575.123 827.449 576.715 819.766 579.101 811.875C581.488 803.362 584.67 795.263 585.864 786.542C586.46 780.936 585.267 773.46 578.902 772.214C572.538 770.761 570.549 776.99 569.157 781.974C565.974 792.772 561.996 803.154 558.217 813.537C556.626 817.274 554.836 820.804 553.444 824.542C550.461 832.64 547.875 840.531 545.687 848.837C544.494 852.575 543.499 856.52 542.903 860.258C542.505 863.165 541.113 866.072 541.51 868.771C541.709 869.809 542.704 870.432 543.499 870.64C543.897 870.64 544.295 870.64 544.693 870.432C544.693 873.547 544.892 876.454 545.09 879.361C543.698 884.345 542.107 889.328 540.715 894.312C538.726 901.995 536.936 909.678 534.35 917.153C531.963 923.798 530.372 930.443 529.179 937.503C528.582 941.033 525.4 947.678 529.179 950.377C529.577 950.585 529.974 950.585 530.372 950.793C529.974 952.454 529.577 954.115 529.179 955.569C527.787 960.967 526.195 965.951 525.002 971.35C522.416 982.355 518.836 992.945 517.245 1004.16C516.649 1007.27 513.665 1024.51 519.831 1024.92C520.825 1024.92 521.82 1024.3 522.416 1023.47C522.416 1024.72 522.416 1025.96 522.416 1027L525.599 1027ZM544.494 990.246C543.499 986.301 543.3 981.94 542.903 977.995C542.505 974.049 541.709 970.104 541.113 966.159C540.118 959.099 538.726 951.831 537.731 944.771C540.317 941.656 542.704 938.334 544.892 935.427C547.875 931.274 551.256 927.121 554.24 922.76C554.24 924.214 554.438 925.459 554.438 926.913C554.438 929.82 553.842 932.935 553.643 935.842C553.444 942.279 553.046 948.508 552.449 954.946C551.654 961.175 550.858 967.612 549.665 974.049C548.869 977.787 547.676 986.508 544.494 990.246ZM555.433 916.323C555.433 916.323 555.234 916.115 555.234 915.7C554.438 910.301 553.842 904.695 552.847 899.296C551.256 888.913 549.068 878.738 547.477 868.356C550.063 865.656 552.449 861.088 553.643 859.427C557.82 854.236 561.798 848.629 565.378 843.23C565.179 844.061 564.98 845.099 564.98 846.137C564.184 852.159 564.383 857.973 563.985 863.995C563.588 869.602 563.389 875.416 562.593 880.815C561.599 887.044 561.798 893.066 560.604 899.088C559.809 902.203 559.212 905.11 558.217 908.225C557.621 910.301 556.228 912.378 555.831 914.246C555.632 914.869 555.632 916.115 555.433 916.323ZM556.03 852.782C555.433 853.613 550.262 860.881 546.88 864.411C546.88 864.203 546.88 864.203 546.88 864.203C546.88 863.995 546.88 863.995 546.88 863.788C546.88 863.788 546.88 863.788 546.88 863.58C547.278 861.711 547.477 859.842 547.875 857.973C548.671 854.028 549.665 850.083 550.659 846.345C552.847 838.662 555.035 830.979 557.621 823.504C558.217 822.05 558.615 820.804 559.212 819.351C560.206 817.274 561.002 815.198 561.996 812.914C563.389 809.591 564.98 806.269 566.372 802.739C569.157 795.263 571.146 787.373 573.134 779.69C573.134 779.482 573.333 779.482 573.333 779.274C573.731 777.613 574.925 777.406 577.112 778.652C579.897 777.613 581.289 778.236 581.289 780.936C581.488 782.597 581.289 784.466 581.09 786.127C580.494 789.657 579.499 793.187 578.704 796.509C577.112 802.946 574.925 809.384 573.731 816.028C572.737 821.22 571.742 825.996 569.753 830.564C569.554 830.564 569.355 830.771 569.157 831.187C568.958 831.81 568.759 832.433 568.56 833.056C568.162 833.679 567.764 834.509 567.367 835.34C563.786 841.154 560.206 847.176 556.03 852.782ZM546.483 888.913C547.477 895.35 548.671 901.787 549.267 908.225C549.665 910.924 549.267 918.399 551.853 920.891C549.267 924.421 547.079 927.951 544.295 931.481C542.306 933.973 540.317 936.672 538.129 939.164C536.737 940.618 534.947 943.525 532.759 944.978C533.157 943.11 533.952 940.41 534.151 939.787C534.549 936.257 535.146 932.935 535.742 929.612C537.135 922.968 539.72 916.738 541.311 910.093C542.903 903.449 545.289 896.181 546.483 888.913Z" fill="white" fill-opacity="0.3"/>
<path d="M621.573 954.658C623.186 958.414 619.96 961.961 616.331 961.961C614.516 962.17 612.5 961.544 611.29 959.875C611.29 959.875 611.29 959.666 611.089 959.666C609.879 958.205 609.677 956.119 610.484 954.241C612.5 949.651 619.759 950.068 621.573 954.658Z" fill="white" fill-opacity="0.3"/>
<path d="M281.475 812.507C284.022 814.166 282.846 815.618 282.651 818.314C282.651 819.144 282.651 819.766 282.846 820.596C282.455 820.389 281.867 820.389 281.671 820.181C275.009 818.314 268.74 815.825 262.274 814.166C256.789 812.714 251.499 811.677 246.013 810.225C247.384 809.395 248.756 808.566 249.931 807.528C251.107 808.358 252.282 808.358 253.85 808.566C258.748 808.98 263.646 809.81 268.544 810.432C272.267 811.055 278.144 810.64 281.475 812.507ZM245.033 804.417C238.568 808.773 232.102 813.129 226.029 818.729C218.779 825.367 211.726 833.664 206.828 842.583C198.207 857.725 198.599 874.527 200.754 891.121C200.363 890.706 200.167 890.291 199.775 890.083C196.444 885.935 193.309 881.579 190.566 876.808C184.493 866.644 177.831 857.103 172.346 846.524C167.056 836.153 160.59 825.574 157.259 814.166C154.908 805.454 153.537 796.95 152.361 788.03C160.394 789.275 168.231 790.52 176.264 791.764C188.803 794.046 201.342 796.327 213.881 798.609C220.347 799.646 226.616 800.683 233.082 802.135C236.804 802.965 241.115 803.38 245.033 804.417ZM148.247 787.408C149.031 791.764 149.422 796.12 150.402 800.476C151.382 805.454 152.557 810.432 153.733 815.411C156.084 826.197 161.57 836.153 166.664 845.695C172.737 856.895 179.791 867.267 186.844 877.638C189.587 881.372 192.134 885.313 195.269 888.839C197.228 890.913 199.187 892.987 201.146 895.062C201.342 896.721 201.734 898.38 201.93 899.832C198.207 896.721 194.289 894.025 190.175 891.121C177.831 880.334 165.096 869.756 152.361 859.385C150.794 857.933 149.227 856.481 147.659 855.029C147.267 854.821 147.071 854.821 146.875 854.821C143.153 851.917 139.626 849.013 136.1 846.109C117.095 830.76 98.2864 814.788 80.2615 798.194C75.9511 794.253 71.4449 790.934 67.1346 786.993C64.9794 784.919 62.6283 782.637 60.6691 780.148C58.9058 777.867 57.5343 777.244 60.865 777.244C73.796 777.867 86.531 779.941 99.2661 781.185C115.724 783.052 131.985 785.126 148.247 787.408ZM216.428 916.426C214.077 913.315 211.334 908.959 208.2 906.263C208.004 905.018 207.808 903.566 207.612 902.321C209.571 904.811 211.726 907.3 213.881 909.581C217.996 913.937 222.306 917.878 226.616 921.819C224.853 924.516 223.677 925.553 220.739 922.234C219.171 920.367 217.996 918.293 216.428 916.426ZM239.939 928.25C237.784 927.212 235.629 924.516 233.866 922.649C228.772 917.464 223.09 913.315 217.8 908.337C215.253 905.64 212.706 902.944 210.355 900.247C209.179 899.003 208.004 898.173 206.828 897.136C206.24 892.78 205.653 888.424 205.261 884.068C209.767 888.839 214.861 893.195 219.759 897.551C225.245 902.529 230.143 907.922 235.825 912.693C238.96 915.389 242.486 918.708 246.405 916.219C246.601 916.012 246.796 915.804 247.188 915.597C248.56 916.841 252.282 918.501 252.478 919.745C252.282 918.915 248.364 922.857 247.776 923.479C246.405 924.723 245.229 926.383 243.662 927.627C241.507 929.494 242.094 929.494 239.939 928.25ZM229.555 900.247C225.441 896.099 220.739 892.365 216.428 888.839C214.077 886.765 211.726 884.898 209.375 882.824C209.179 882.824 206.828 880.957 205.065 879.712C204.869 874.527 204.869 869.341 205.457 864.155C213.881 870.171 221.718 877.016 230.143 882.616C235.433 886.142 240.919 889.046 246.013 892.78C247.972 894.232 251.499 896.514 253.262 898.588C254.242 899.832 254.242 898.795 252.87 900.662C250.715 903.566 248.364 909.167 245.229 911.241C240.919 914.145 232.494 903.151 229.555 900.247ZM258.16 904.396C257.376 904.188 256.789 903.773 256.005 903.773C257.572 901.284 258.748 899.21 256.397 896.721C251.89 891.743 245.425 888.217 239.939 884.898C232.886 880.334 226.42 875.149 219.759 869.963C220.543 870.378 221.326 870.793 221.914 871.208C228.576 874.734 236.021 877.016 243.074 880.334C246.601 881.994 250.127 884.068 253.654 885.935C255.417 886.972 257.964 889.254 259.923 889.254C261.099 889.254 261.687 888.839 262.079 888.217L262.274 888.424C264.626 889.876 267.173 890.913 269.524 891.95C272.462 893.195 274.618 893.402 272.854 897.136C271.287 899.832 269.524 902.322 267.564 905.018C266.977 905.848 265.801 908.959 265.017 909.374C264.234 909.581 259.336 905.018 258.16 904.396ZM238.764 873.697C232.494 871 226.42 868.511 220.543 865.192C217.996 863.948 215.449 862.703 212.902 861.666C210.942 860.837 208.395 860.422 206.436 859.385C207.22 855.443 208.395 851.502 210.159 847.769C212.902 849.636 216.428 850.88 218.779 851.917C225.245 854.821 231.514 858.14 237.784 861.251C243.858 863.948 249.735 866.852 255.809 869.548C257.964 870.378 260.315 871.415 262.47 872.452C265.017 873.489 265.801 873.904 263.842 876.393C262.666 878.26 261.491 879.92 260.511 881.786C261.099 880.542 259.14 884.483 259.727 884.898C258.944 884.69 256.985 883.031 256.397 882.824C250.715 879.505 244.837 876.393 238.764 873.697ZM251.695 863.118C244.249 859.799 236.804 856.481 229.555 852.54C225.637 850.673 221.718 848.598 217.8 846.732C216.624 846.109 214.077 845.28 212.118 844.243C214.077 840.924 216.232 837.605 218.583 834.701C228.184 843.828 240.527 849.636 250.911 857.725C253.458 859.592 255.809 861.666 258.356 863.74C259.727 864.778 261.295 866.437 263.254 866.644C266.193 866.852 267.564 863.948 269.132 861.251C272.854 863.533 276.773 865.607 280.887 867.059C281.671 867.474 282.651 867.474 283.434 867.889C285.785 868.926 284.806 868.096 284.414 869.548C284.022 870.793 282.259 872.66 281.475 873.904C281.083 874.319 279.124 878.675 278.34 879.297C278.732 878.883 275.401 877.638 275.009 877.431C273.246 876.601 271.287 875.356 269.328 875.356C270.111 873.904 269.915 872.245 267.76 870.586C263.45 867.059 256.789 865.4 251.695 863.118ZM266.389 857.933C265.801 858.762 264.234 861.874 263.646 862.081C262.274 862.496 258.552 857.933 257.376 856.895C253.85 853.992 250.127 851.088 246.209 848.391C241.311 845.072 236.413 842.168 231.514 839.057C230.535 838.435 222.502 833.664 220.151 832.834C222.502 829.93 224.853 827.234 227.4 824.745C237.196 830.138 246.209 836.36 256.201 841.339C260.903 843.62 265.801 845.902 270.503 848.598C273.442 850.258 272.658 850.673 270.503 853.162C269.132 854.821 267.564 856.273 266.389 857.933ZM283.042 853.577C281.279 852.54 278.928 851.917 276.773 851.917C277.361 850.673 277.556 849.636 276.969 848.598C275.597 844.657 267.956 842.998 264.821 841.339C256.397 837.398 248.56 832.627 240.723 827.856C249.931 831.59 259.14 835.116 268.544 838.435C273.834 840.509 279.908 842.998 285.589 843.413C288.528 843.828 289.312 842.168 289.704 839.472C292.251 840.716 294.994 841.339 297.541 841.753C297.737 841.753 298.52 841.753 299.108 841.961C298.716 842.168 298.324 842.791 298.128 842.998C296.757 845.28 295.777 847.769 294.602 850.258C294.014 851.502 292.055 857.31 291.075 857.725C289.116 858.14 284.61 854.199 283.042 853.577ZM286.569 834.701C285.785 835.323 285.393 836.36 285.981 837.19C285.981 837.398 285.981 837.398 285.981 837.605C285.393 839.057 286.569 838.642 285.198 839.057C284.61 839.057 282.846 838.435 282.063 838.227C279.908 837.605 277.556 836.983 275.401 836.36C270.503 834.701 265.605 833.042 260.707 831.175C250.911 827.234 240.527 825.159 230.535 821.841C234.061 818.522 237.784 815.825 241.507 813.129C252.674 816.24 264.234 818.107 275.009 822.256C278.928 823.915 284.414 824.33 287.94 826.611C289.704 827.649 289.312 826.404 288.724 828.686C288.332 829.93 287.549 830.967 287.157 832.005C286.961 833.042 286.765 833.871 286.569 834.701ZM277.556 807.528C272.071 806.491 266.389 805.662 260.903 804.832C258.748 804.417 256.201 803.795 253.654 803.795C253.85 802.758 253.458 801.513 252.478 801.098C246.209 798.609 238.764 797.987 232.102 796.742C224.461 795.083 216.82 794.253 209.179 792.594C193.897 789.69 178.615 787.201 163.333 784.712C135.708 780.148 107.887 776.207 80.2615 772.888C73.4041 771.851 66.5468 771.022 59.6895 771.022C56.1629 770.814 52.4403 772.059 52.0485 776.207C51.4607 780.771 56.3588 785.126 59.1017 788.03C63.2161 792.386 67.9183 795.705 72.6204 799.646C93.1924 816.655 113.568 834.079 134.532 850.673C142.173 856.481 149.814 862.496 157.651 868.511C158.435 869.341 159.219 870.171 160.002 871.208C164.117 875.564 168.623 879.297 173.129 883.446C182.925 892.365 194.485 899.21 203.693 908.752C204.477 909.581 205.457 909.581 206.24 909.374C207.416 911.448 209.179 913.108 210.551 914.974C213.685 918.708 216.232 923.479 219.563 927.005C222.894 930.531 227.792 928.664 229.751 924.723C230.535 925.553 231.514 926.383 232.298 927.212C235.041 930.116 239.547 936.132 243.858 933.228C246.405 931.568 248.56 928.664 250.911 926.59C252.674 924.723 255.613 922.857 256.593 920.16C256.985 919.123 256.789 918.501 256.201 917.671C254.633 915.389 251.89 914.56 249.931 912.693C251.499 910.826 252.674 908.544 254.046 906.677C255.025 908.129 256.593 908.959 257.964 910.204C259.923 911.656 261.883 913.522 264.234 913.73C265.605 913.937 266.781 913.315 267.76 912.07C269.328 909.789 270.503 906.885 272.071 904.603C274.03 901.699 278.732 895.891 277.165 892.158C276.185 890.083 273.05 889.461 271.287 888.424C269.132 887.387 265.997 886.35 264.038 884.69C265.017 882.409 265.997 880.334 267.564 878.26C267.76 877.845 267.956 877.638 268.348 877.223C269.915 877.638 271.875 879.92 273.246 880.749C274.814 881.579 276.969 883.446 278.536 883.653C280.103 883.653 280.887 882.616 281.671 881.372C283.042 878.883 284.414 876.393 285.981 873.904C287.745 871.208 290.096 867.474 286.569 865.4C284.414 863.948 281.671 863.533 279.32 862.289C276.773 860.837 274.226 859.592 271.483 857.933C272.658 857.103 273.834 855.858 275.009 854.406C277.556 855.651 280.299 856.688 282.846 857.933C285.198 859.177 287.745 861.251 290.487 861.251C294.798 861.459 296.561 854.614 298.324 851.295C299.696 848.598 305.182 841.961 302.047 838.642C301.067 837.605 299.304 837.812 297.933 837.398C295.581 836.775 293.034 835.946 290.683 835.116C291.663 833.042 292.643 830.967 293.622 828.686C294.014 827.441 294.406 826.611 294.014 825.367C292.839 822.67 288.724 821.633 285.393 821.011C286.569 817.9 288.528 813.751 286.569 810.847C284.806 807.943 280.299 807.943 277.556 807.528Z" fill="white" fill-opacity="0.3"/>
<path fill-rule="evenodd" clip-rule="evenodd" d="M295.323 219.913C295.323 237.434 321.42 227.741 331.486 230.724C337.451 232.588 341.924 243.399 334.468 246.381C331.858 247.499 329.249 246.754 325.893 247.127C324.775 247.499 318.437 247.499 317.319 247.872C310.235 250.109 313.218 263.157 324.029 263.157H363.547C367.648 263.157 369.139 263.902 371.376 265.394C375.85 269.122 378.087 279.187 368.021 279.933C351.99 281.424 321.047 280.678 303.525 280.678C294.95 280.678 283.02 278.441 283.02 286.643C283.02 294.099 288.24 296.336 294.577 295.963C308.744 295.963 323.657 295.59 337.451 295.963C349.753 296.708 353.854 309.011 346.398 312.739C341.551 315.348 325.148 309.756 325.148 319.822C325.148 322.804 327.385 326.159 329.249 327.65C332.604 329.887 340.806 328.769 345.28 329.514C351.245 330.26 355.345 328.769 359.074 334.361C363.547 340.698 360.192 346.663 351.99 347.036C346.771 347.408 319.183 345.917 316.2 347.781C313.218 349.645 312.472 352.628 313.591 355.983C316.573 363.811 324.029 362.693 331.486 362.693C339.315 362.693 347.889 361.947 355.345 363.066C357.209 363.066 369.885 361.575 369.885 373.131C369.885 380.214 363.547 379.842 357.955 379.842H320.674C312.1 379.842 307.253 379.096 307.253 387.297C307.253 397.736 323.657 395.499 329.622 395.499C336.705 395.499 343.788 394.38 348.262 399.6C351.245 403.328 351.245 408.547 347.516 411.529C340.433 416.748 325.893 407.055 325.893 420.476C325.893 432.406 349.38 429.05 356.837 429.05C363.547 429.05 370.258 429.05 376.968 429.05C379.951 429.05 381.442 429.423 384.052 431.66C385.17 432.778 387.407 436.506 387.407 438.37C387.407 447.69 377.714 445.826 368.767 445.826C357.582 445.826 309.863 445.081 302.406 445.826C289.731 447.317 294.205 461.856 305.762 461.856H348.635C352.363 461.856 355.345 462.229 357.582 463.72C360.565 465.584 361.683 469.312 361.683 473.04C361.683 479.005 355.718 479.378 349.38 479.378C344.534 479.378 337.078 478.259 337.078 485.715C337.078 489.07 340.06 492.798 342.297 493.917C350.872 498.017 364.666 490.561 371.003 499.508C374.732 504.728 372.495 511.811 365.411 512.183C355.345 512.929 344.534 512.183 334.468 512.183C323.657 512.183 322.538 521.131 328.876 525.977C334.095 530.078 353.481 528.586 360.565 528.586C367.275 528.586 387.78 527.095 392.999 530.078C397.846 532.687 400.828 543.125 394.118 544.989C388.525 546.481 345.28 543.498 338.942 546.108C331.486 549.09 336.705 558.783 341.179 560.647C349.38 564.002 364.293 558.41 372.122 562.138C377.341 564.747 381.815 574.067 375.104 577.795C369.139 580.778 353.854 575.186 353.854 584.878C353.854 587.861 354.973 590.47 356.837 591.961C362.802 597.181 376.596 594.944 384.052 594.944C393.372 594.944 407.539 593.08 412.013 597.553C415.741 601.281 416.859 609.483 410.148 611.347C402.692 613.211 332.977 609.483 326.639 612.465C320.301 615.448 322.538 624.022 328.876 626.631C338.569 631.105 378.832 624.395 385.916 629.614C392.626 634.833 392.626 645.271 379.205 645.271C372.122 645.271 365.411 644.153 365.411 651.236C365.411 666.893 388.525 657.573 395.609 662.047C398.591 663.911 400.828 666.893 400.828 671.367C400.828 680.687 386.661 678.077 377.341 678.077C373.24 678.077 359.074 676.959 356.091 679.195C350.872 682.923 354.227 690.752 358.701 692.989C369.885 698.581 404.556 687.024 409.403 700.817C410.894 704.545 409.776 709.392 406.048 710.51C403.065 712.001 382.561 710.883 377.341 710.883C374.359 716.475 372.122 722.067 368.394 726.913C347.516 753.381 306.135 755.245 277.055 741.825L266.617 736.233C252.45 727.286 239.774 714.238 231.573 699.699C225.981 689.261 222.252 679.568 219.27 667.639C218.524 664.656 218.152 662.42 217.406 659.064L199.511 555.8C197.647 543.871 194.665 530.823 192.8 518.521C191.309 505.846 188.7 493.917 186.463 481.242L179.752 443.962C176.397 424.204 164.094 351.509 158.875 333.242C155.892 322.431 149.927 311.993 143.59 304.164C140.98 301.182 139.116 298.2 136.133 295.963L120.103 283.661C111.155 278.069 96.9884 273.595 86.1769 273.595C68.2821 273.595 54.8609 275.832 42.1854 288.88C38.4573 292.608 34.3564 298.572 32.4924 304.164C26.9002 318.33 28.0187 334.733 30.2555 350.018L36.2205 392.517C39.2029 413.393 43.3038 434.642 46.6591 455.519L50.0144 476.022C53.3697 496.526 58.589 522.622 36.5933 534.178C25.7818 539.77 11.2422 537.161 1.922 531.196C-8.14386 525.231 -17.8369 518.521 -27.1571 511.811C-36.1046 504.728 -45.052 497.645 -53.2538 489.443L-76.7408 464.466C-83.8242 455.519 -91.2804 445.826 -97.2453 435.761C-108.43 416.375 -116.631 399.227 -124.46 377.978C-131.917 358.219 -139 328.023 -139 306.774C-139 285.152 -138.254 270.613 -133.035 249.736C-128.189 231.097 -122.224 216.558 -112.903 200.9L-106.193 190.835C-105.447 189.344 -104.702 188.598 -103.956 187.107L-93.5172 174.432C-88.2979 167.722 -77.1136 156.91 -69.2846 152.064C-64.8109 148.709 -60.71 145.354 -55.8635 142.371C-51.017 139.389 -46.5432 136.407 -41.3239 134.17C-35.7318 131.188 -31.258 128.951 -25.2931 126.714C-14.1088 122.241 -1.80609 118.513 10.1238 115.903C36.5933 109.566 69.4005 109.566 96.6156 114.785C105.563 116.649 117.12 118.885 126.068 121.868C133.524 124.85 140.98 126.714 148.063 129.696L157.756 134.17C180.871 143.863 208.458 160.638 226.726 177.041L238.283 187.107C238.656 187.48 239.029 187.852 239.402 188.225L246.112 194.563C247.976 196.427 247.603 196.799 251.332 196.799C278.174 197.172 305.016 196.799 331.858 196.799C335.587 196.799 335.959 197.172 338.942 197.545C343.416 197.545 349.38 196.427 352.736 198.663C359.074 202.391 361.31 213.948 349.38 214.321L304.643 213.948C299.797 213.948 295.323 215.066 295.323 219.913ZM80.9576 206.492C123.831 209.847 168.195 232.215 195.41 261.666C221.134 289.252 243.503 328.769 244.994 381.705C245.367 387.67 244.994 395.872 242.757 400.718C239.402 407.801 234.182 404.446 231.945 398.854C230.081 394.38 229.336 386.179 228.217 380.96C222.625 349.272 217.779 328.396 201.375 301.927C182.735 272.477 146.945 241.535 100.344 232.961C20.1896 218.049 -37.9686 268.376 -27.9028 351.509C-26.4115 363.811 -24.1747 375.741 -22.3106 388.043C-21.565 392.889 -20.0738 403.7 -25.6659 404.446C-31.258 405.192 -34.2405 396.99 -36.4774 393.262C-46.5432 373.131 -53.6266 352.255 -53.6266 325.786C-53.2538 300.064 -45.4248 278.441 -33.8677 260.547C-14.1088 230.351 25.409 202.391 80.9576 206.492Z" fill="white"/>
<path fill-rule="evenodd" clip-rule="evenodd" d="M464 272.574C464 277.936 461.031 281 456.207 281H416.497C404.993 281 401.281 263 413.899 263H454.351C458.804 263 464 269.128 464 272.574Z" fill="white"/>
<path fill-rule="evenodd" clip-rule="evenodd" d="M417.867 346H377.653C365.737 346 362.386 329 375.046 329H415.633C425.687 329 429.41 346 417.867 346Z" fill="white"/>
<path fill-rule="evenodd" clip-rule="evenodd" d="M476 435.574C476 440.17 474.142 444 469.684 444H426.955C418.409 444 411.722 426 427.698 426H463.739C469.684 426 476 430.213 476 435.574Z" fill="white"/>
<path fill-rule="evenodd" clip-rule="evenodd" d="M426 471.689C426 476.222 424.133 480 419.652 480H377.457C366.628 480 364.388 463 374.47 463H417.412C421.146 463 426 467.911 426 471.689Z" fill="white"/>
<path fill-rule="evenodd" clip-rule="evenodd" d="M409 439.876C409 444.997 401.022 448.654 395.945 443.534C390.506 437.681 393.044 430 399.934 430C404.648 430 409 435.121 409 439.876Z" fill="white"/>
<path fill-rule="evenodd" clip-rule="evenodd" d="M399 506.454C399 516.776 382 513.827 382 504.98C382 493.183 393.205 497.239 395.523 499.819C396.682 500.925 399 504.243 399 506.454Z" fill="white"/>
<path fill-rule="evenodd" clip-rule="evenodd" d="M449 339.582C449 350.124 432 346.61 432 336.771C432 328.338 449 329.041 449 339.582Z" fill="white"/>
<path fill-rule="evenodd" clip-rule="evenodd" d="M395 373.591C395 382.843 378 382.473 378 369.89C378 361.007 395 362.117 395 373.591Z" fill="white"/>
<path fill-rule="evenodd" clip-rule="evenodd" d="M392.221 280C380.397 280 377.889 264 389.713 264C393.654 264 396.879 267.81 397.595 271.238C399.028 275.429 396.52 280 392.221 280Z" fill="white"/>
<path fill-rule="evenodd" clip-rule="evenodd" d="M451 472.977C451 483.193 435 482.436 435 469.571C435 460.49 451 463.139 451 472.977Z" fill="white"/>
</g>
<defs>
<clipPath id="clip0_4_1490">
<rect width="1440" height="977" fill="white"/>
</clipPath>
</defs>
</svg>
